HIERARCHY
ROOT Hips
{
	OFFSET 7.578175 104.101242 -2.137992
	CHANNELS 6 Xposition Yposition Zposition Xrotation Yrotation Zrotation
	JOINT Chest
	{
		OFFSET 0.322337 13.607643 0.939305
		CHANNELS 3 Xrotation Yrotation Zrotation
		JOINT Chest2
		{
			OFFSET -1.221322 21.124474 3.366246
			CHANNELS 3 Xrotation Yrotation Zrotation
			JOINT Chest3
			{
				OFFSET 0.589282 14.909897 -0.409469
				CHANNELS 3 Xrotation Yrotation Zrotation
				JOINT Neck
				{
					OFFSET -0.315098 17.225800 1.337318
					CHANNELS 3 Xrotation Yrotation Zrotation
					JOINT Head
					{
						OFFSET -1.981926 10.053925 2.195028
						CHANNELS 3 Xrotation Yrotation Zrotation
						End Site
						{
							OFFSET -1.975057 10.070480 2.124173
						}
					}
				}
				JOINT LeftCollar
				{
					OFFSET 4.379498 13.133087 3.185344
					CHANNELS 3 Xrotation Yrotation Zrotation
					JOINT LeftUpArm
					{
						OFFSET 14.965987 4.165588 -8.195518
						CHANNELS 3 Xrotation Yrotation Zrotation
						JOINT LeftLowArm
						{
							OFFSET 32.481033 2.947433 8.719110
							CHANNELS 3 Xrotation Yrotation Zrotation
							JOINT LeftHand
							{
								OFFSET 26.821262 3.028976 13.129811
								CHANNELS 3 Xrotation Yrotation Zrotation
								End Site
								{
									OFFSET 5.861946 0.661957 2.869600
								}
							}
						}
					}
				}
				JOINT RightCollar
				{
					OFFSET -3.923173 12.876083 4.541326
					CHANNELS 3 Xrotation Yrotation Zrotation
					JOINT RightUpArm
					{
						OFFSET -16.818087 4.729340 1.811504
						CHANNELS 3 Xrotation Yrotation Zrotation
						JOINT RightLowArm
						{
							OFFSET 4.905745 -2.335571 33.319862
							CHANNELS 3 Xrotation Yrotation Zrotation
							JOINT RightHand
							{
								OFFSET 20.880968 4.790237 21.023651
								CHANNELS 3 Xrotation Yrotation Zrotation
								End Site
								{
									OFFSET 4.563744 1.046967 4.594929
								}
							}
						}
					}
				}
			}
		}
	}
	JOINT LeftUpLeg
	{
		OFFSET 9.994703 -0.283005 0.667031
		CHANNELS 3 Xrotation Yrotation Zrotation
		JOINT LeftLowLeg
		{
			OFFSET 8.130733 -46.667721 0.061079
			CHANNELS 3 Xrotation Yrotation Zrotation
			JOINT LeftFoot
			{
				OFFSET 5.655338 -41.366379 -16.043911
				CHANNELS 3 Xrotation Yrotation Zrotation
				JOINT LeftToe
				{
					OFFSET 0.949087 -19.827925 12.865149
					CHANNELS 3 Xrotation Yrotation Zrotation
					End Site
					{
						OFFSET 0.680656 -7.153879 22.537027
					}
				}
			}
		}
	}
	JOINT RightUpLeg
	{
		OFFSET -9.994713 0.282806 -0.667045
		CHANNELS 3 Xrotation Yrotation Zrotation
		JOINT RightLowLeg
		{
			OFFSET -13.615885 -45.177155 4.200431
			CHANNELS 3 Xrotation Yrotation Zrotation
			JOINT RightFoot
			{
				OFFSET -11.135769 -41.841358 -11.219372
				CHANNELS 3 Xrotation Yrotation Zrotation
				JOINT RightToe
				{
					OFFSET -2.884275 -13.314917 19.337801
					CHANNELS 3 Xrotation Yrotation Zrotation
					End Site
					{
						OFFSET -1.522558 2.011628 23.520016
					}
				}
			}
		}
	}
}
MOTION
Frames: 8
Frame Time: 0.033333
-4.540414 105.240959 -1.111727 5.642786 1.727824 1.756161 -8.492825 0.193030 -2.508222 5.517332 -1.891338 4.412498 -1.840786 -6.948920 -7.081888 -8.324501 11.177729 -5.375246 -0.000001 0.000000 -0.000000 1.340662 8.404636 -36.346462 12.245310 4.133279 -48.212779 14.986816 -8.756720 -0.617810 -0.000000 -0.000001 0.000001 17.220652 -17.399506 41.450157 67.299807 -48.582196 48.637579 16.766972 -15.329851 -18.132535 -0.000000 0.000001 -0.000002 -4.209753 -0.245572 -6.663690 -7.538111 2.708216 3.351825 0.091677 -2.161685 2.130711 -0.000000 -0.000000 -0.000000 6.913505 0.275553 14.093678 -12.400790 -2.053042 -1.178906 6.272438 3.010959 -7.241395 -0.000002 -0.000001 -0.000001 
-4.547850 105.238457 -1.115044 5.646690 2.021222 1.750636 -8.607346 0.219003 -2.559640 5.723055 -1.915874 4.486820 -2.038130 -7.128679 -7.126651 -8.221680 11.173147 -5.398329 -0.000000 0.000000 -0.000001 1.448796 8.174288 -36.275056 12.326165 4.051866 -48.264248 15.092519 -9.040252 -0.547535 -0.000003 -0.000002 0.000001 17.210613 -17.527147 41.335615 67.261982 -48.406548 48.397136 16.497314 -15.723423 -18.022801 0.000000 0.000002 -0.000000 -4.008089 -0.275573 -6.563101 -7.956680 2.728557 3.290304 0.081889 -2.334150 2.109579 -0.000002 -0.000000 -0.000000 6.831438 0.310179 14.081582 -12.220862 -2.122270 -1.080001 6.117922 3.052056 -7.474293 -0.000001 -0.000000 -0.000000 
-4.569227 105.231415 -1.119575 5.779004 2.153545 1.641526 -8.583658 0.227755 -2.549017 5.247555 -1.939772 4.468628 -1.382648 -7.343425 -7.172431 -8.760406 10.976893 -5.184802 -0.000000 0.000000 -0.000000 1.477918 7.547992 -35.842661 12.129317 3.985821 -48.541103 14.800907 -9.054451 -0.764942 -0.000003 -0.000001 0.000000 16.930801 -17.599280 40.972304 67.746693 -48.312889 49.012099 16.684774 -15.971007 -17.767456 -0.000000 0.000002 -0.000003 -4.099846 -0.257227 -6.354804 -7.855765 2.643275 3.189460 0.369834 -2.394647 2.319855 -0.000000 0.000001 0.000000 6.735078 0.299266 14.283281 -12.141290 -2.013871 -1.065052 6.014304 3.109649 -7.640330 -0.000001 0.000000 0.000001 
-4.585971 105.230629 -1.123649 5.808504 2.336392 1.683058 -8.325734 0.239067 -2.670342 4.809763 -2.016500 4.574357 -1.193564 -7.211825 -7.275989 -8.556535 10.761736 -4.974271 -0.000002 0.000001 -0.000001 1.585680 7.187861 -35.761552 12.247923 3.783624 -48.447252 15.081753 -8.982478 -0.673385 -0.000006 -0.000001 -0.000002 16.991101 -17.863262 40.985947 67.701552 -48.352436 48.777912 16.135272 -15.923524 -18.020928 0.000001 0.000003 -0.000001 -4.082274 -0.225765 -6.402210 -7.877415 2.633839 3.250778 0.361496 -2.582525 2.285113 -0.000002 -0.000000 -0.000000 6.720317 0.288882 14.316197 -12.048020 -2.030602 -1.097203 6.374507 3.257633 -7.734792 -0.000001 0.000000 0.000001 
-4.617061 105.227295 -1.128095 6.120655 2.269441 1.651689 -8.848671 0.273812 -2.749087 5.056348 -1.994717 4.496111 -1.102015 -7.091949 -7.172959 -8.415171 10.561154 -4.862800 -0.000000 0.000001 -0.000000 1.481234 7.202311 -35.571079 12.139131 4.066178 -48.472101 15.102595 -9.476574 -0.972416 -0.000003 0.000000 0.000002 16.909711 -18.384320 41.166694 67.625361 -48.378196 48.962481 15.691981 -16.021705 -17.727930 0.000000 0.000000 -0.000003 -4.144648 -0.182611 -6.216674 -7.803588 2.774674 3.184553 0.072588 -2.347428 2.042961 -0.000000 0.000000 -0.000000 6.334943 0.242642 14.386426 -11.902715 -2.125552 -1.169212 6.375085 3.187197 -7.576307 -0.000001 -0.000000 0.000000 
-4.655603 105.226395 -1.134580 5.678313 2.613305 1.434460 -8.334175 0.229487 -2.589643 4.692201 -2.120500 4.655842 -0.877267 -7.475544 -7.369211 -8.356089 10.496143 -4.916386 -0.000001 0.000000 -0.000000 1.433088 6.808727 -35.437477 12.148517 4.326183 -48.603623 15.032577 -9.799546 -0.699604 -0.000003 0.000002 -0.000000 16.841611 -17.989557 41.054450 67.190217 -48.297531 48.668369 14.804415 -16.342377 -17.295825 -0.000000 0.000001 -0.000000 -4.612716 -0.207431 -5.863857 -6.530167 2.931405 3.134199 -0.097657 -2.232341 1.912605 -0.000000 0.000001 0.000000 6.804026 0.217376 14.721525 -11.759296 -2.183391 -1.108161 6.440839 3.397990 -7.946332 -0.000001 -0.000000 -0.000000 
-4.696559 105.234138 -1.139753 5.368851 2.512883 1.427551 -7.892535 0.220009 -2.692353 4.903559 -2.089586 4.566731 -1.065013 -7.345761 -7.198582 -7.807181 10.309473 -4.967516 -0.000001 0.000001 -0.000000 1.368190 7.736904 -35.340516 12.065922 3.831838 -48.341702 15.203335 -9.265121 -1.180714 -0.000006 -0.000001 -0.000002 16.937553 -17.923297 40.993894 67.184657 -48.554589 48.603985 13.931809 -16.046126 -17.305295 0.000002 0.000003 -0.000002 -4.579856 -0.154476 -5.696730 -5.906401 2.949920 2.984920 -0.199848 -2.151088 1.783824 -0.000004 0.000001 0.000000 7.015670 0.194064 14.811771 -11.459938 -2.218633 -1.102576 6.482092 3.295949 -7.840427 -0.000001 -0.000001 -0.000000 
-4.748768 105.235748 -1.143621 5.273781 2.363450 1.392272 -7.578087 0.232023 -2.770325 4.375847 -2.045686 4.437069 -0.778009 -7.376154 -7.025460 -7.348671 10.089800 -5.170694 -0.000000 0.000001 -0.000001 1.259843 8.785232 -35.222060 11.776028 3.740987 -48.228966 15.029599 -9.060373 -1.877239 -0.000001 0.000002 0.000001 16.856138 -18.568627 41.086521 67.342161 -48.784872 49.030930 13.396275 -16.780120 -16.804429 -0.000001 0.000003 -0.000002 -4.624570 -0.123340 -5.509797 -5.510413 2.958886 2.880234 -0.183106 -2.078292 1.829601 -0.000000 0.000000 0.000000 7.022325 0.146374 14.979679 -11.043587 -2.381885 -1.212620 7.039717 3.123467 -7.734241 0.000000 -0.000001 0.000000 
